<svg width="23" height="23" viewBox="0 0 23 23" fill="none" xmlns="http://www.w3.org/2000/svg">
<path d="M20.746 19.0469C19.3776 16.6813 17.269 14.985 14.8082 14.1809C16.0254 13.4563 16.9711 12.3521 17.5001 11.038C18.0291 9.72389 18.112 8.27245 17.7363 6.90661C17.3605 5.54076 16.5467 4.33603 15.42 3.47742C14.2933 2.61881 12.9158 2.1538 11.4993 2.1538C10.0827 2.1538 8.70523 2.61881 7.57849 3.47742C6.45176 4.33603 5.63802 5.54076 5.26224 6.90661C4.88647 8.27245 4.96943 9.72389 5.4984 11.038C6.02736 12.3521 6.97307 13.4563 8.19031 14.1809C5.72949 14.9841 3.62085 16.6804 2.25253 19.0469C2.20235 19.1287 2.16907 19.2197 2.15465 19.3146C2.14022 19.4095 2.14495 19.5063 2.16855 19.5994C2.19215 19.6924 2.23415 19.7798 2.29206 19.8563C2.34997 19.9328 2.42262 19.997 2.50573 20.045C2.58885 20.093 2.68073 20.1239 2.77597 20.1358C2.87121 20.1477 2.96787 20.1405 3.06025 20.1144C3.15263 20.0884 3.23886 20.0441 3.31385 19.9842C3.38884 19.9243 3.45107 19.85 3.49687 19.7656C5.18952 16.8403 8.18132 15.0937 11.4993 15.0937C14.8172 15.0937 17.809 16.8403 19.5016 19.7656C19.5474 19.85 19.6097 19.9243 19.6847 19.9842C19.7596 20.0441 19.8459 20.0884 19.9383 20.1144C20.0306 20.1405 20.1273 20.1477 20.2225 20.1358C20.3178 20.1239 20.4097 20.093 20.4928 20.045C20.5759 19.997 20.6485 19.9328 20.7064 19.8563C20.7644 19.7798 20.8064 19.6924 20.83 19.5994C20.8536 19.5063 20.8583 19.4095 20.8439 19.3146C20.8294 19.2197 20.7961 19.1287 20.746 19.0469ZM6.468 8.625C6.468 7.62991 6.76308 6.65717 7.31592 5.82979C7.86876 5.0024 8.65453 4.35753 9.57388 3.97673C10.4932 3.59593 11.5048 3.49629 12.4808 3.69042C13.4568 3.88455 14.3532 4.36373 15.0569 5.06737C15.7605 5.771 16.2397 6.66748 16.4338 7.64345C16.628 8.61942 16.5283 9.63103 16.1475 10.5504C15.7667 11.4697 15.1218 12.2555 14.2945 12.8083C13.4671 13.3612 12.4943 13.6562 11.4993 13.6562C10.1653 13.6548 8.88643 13.1243 7.9432 12.1811C6.99996 11.2378 6.46943 9.95893 6.468 8.625Z" fill="#566770"></path>
</svg>