<svg width="70" height="78" viewBox="0 0 70 78" fill="none" xmlns="http://www.w3.org/2000/svg">
<path d="M5.57231 0.000299017C2.50453 0.000299017 0 2.50483 0 5.57261V63.5246C0 66.5924 2.50453 69.0969 5.57231 69.0969H24.5181C24.5165 69.1317 24.5165 69.1666 24.5181 69.2014L25.1102 75.2961C25.127 75.5162 25.2087 75.7265 25.3452 75.9001C25.4816 76.0737 25.6665 76.2029 25.8764 76.2712L30.8915 77.9429C31.0899 78.009 31.3029 78.0179 31.5061 77.9686C31.7093 77.9194 31.8946 77.8139 32.0408 77.6643L50.6732 59.0319C55.4758 60.5953 61.1254 59.7952 64.987 55.9323C65.0708 55.851 65.1414 55.757 65.196 55.6537C70.3784 50.2058 70.3888 41.624 65.0915 36.3248C62.4014 33.6337 58.8555 32.2991 55.3051 32.3197C53.938 32.3276 52.5857 32.538 51.2652 32.9466V16.7172C51.2686 16.5696 51.2427 16.4228 51.1889 16.2853C51.1351 16.1477 51.0545 16.0223 50.9518 15.9162L35.3493 0.313741C35.2432 0.211039 35.1178 0.130443 34.9803 0.0766349C34.8428 0.0228266 34.6959 -0.00312106 34.5483 0.000299017H5.57231ZM5.57231 2.22922H32.3194V16.7172C32.3194 17.0128 32.4368 17.2962 32.6458 17.5052C32.8548 17.7142 33.1383 17.8317 33.4338 17.8317H49.0363V33.8869C47.7636 34.5384 46.5487 35.364 45.484 36.4293C41.614 40.3004 40.7727 45.9674 42.3495 50.7779L39.5982 53.4944H20.0603C19.9908 53.4879 19.9208 53.4879 19.8513 53.4944C19.5558 53.5222 19.2833 53.6661 19.0939 53.8947C18.9045 54.1233 18.8137 54.4178 18.8414 54.7134C18.8691 55.009 19.0131 55.2814 19.2417 55.4708C19.4703 55.6602 19.7647 55.7511 20.0603 55.7234H37.4041L37.0907 56.0368C36.988 56.1429 36.9074 56.2684 36.8536 56.4059C36.7998 56.5434 36.7738 56.6902 36.7772 56.8378V59.0667H34.5483C34.4007 59.0633 34.2538 59.0893 34.1163 59.1431C33.9788 59.1969 33.8534 59.2775 33.7473 59.3802L30.4039 62.7236C30.3012 62.8297 30.2206 62.9551 30.1668 63.0926C30.113 63.2301 30.087 63.377 30.0905 63.5246V65.7535H27.8615C27.7139 65.7501 27.5671 65.776 27.4296 65.8299C27.2921 65.8837 27.1666 65.9643 27.0605 66.067L26.2595 66.868C26.2363 66.8673 26.2131 66.8673 26.1898 66.868H5.57231C3.7008 66.868 2.22892 65.3961 2.22892 63.5246V5.57261C2.22892 3.70111 3.70081 2.22922 5.57231 2.22922ZM34.5483 2.68197L47.4691 15.6028H34.5483V2.68197ZM11.1446 26.7474C9.31131 26.7474 7.80123 28.2575 7.80123 30.0908C7.80123 31.9241 9.31131 33.4341 11.1446 33.4341C12.9779 33.4341 14.488 31.9241 14.488 30.0908C14.488 28.2575 12.9779 26.7474 11.1446 26.7474ZM11.1446 28.9763C11.7733 28.9763 12.2591 29.4621 12.2591 30.0908C12.2591 30.7195 11.7733 31.2052 11.1446 31.2052C10.5159 31.2052 10.0302 30.7195 10.0302 30.0908C10.0302 29.4621 10.5159 28.9763 11.1446 28.9763ZM19.8513 28.9763C19.5558 29.004 19.2833 29.148 19.0939 29.3766C18.9045 29.6052 18.8137 29.8997 18.8414 30.1952C18.8691 30.4908 19.0131 30.7633 19.2417 30.9527C19.4703 31.1421 19.7647 31.2329 20.0603 31.2052H40.1206C40.2683 31.2073 40.4149 31.18 40.5519 31.125C40.689 31.0699 40.8137 30.9881 40.9189 30.8844C41.0241 30.7807 41.1076 30.6572 41.1646 30.5209C41.2216 30.3847 41.2509 30.2384 41.2509 30.0908C41.2509 29.9431 41.2216 29.7968 41.1646 29.6606C41.1076 29.5243 41.0241 29.4008 40.9189 29.2971C40.8137 29.1934 40.689 29.1116 40.5519 29.0566C40.4149 29.0015 40.2683 28.9742 40.1206 28.9763H20.0603C19.9908 28.9697 19.9208 28.9697 19.8513 28.9763ZM55.3051 34.5138C58.2802 34.4957 61.2651 35.632 63.5243 37.892C68.0428 42.412 68.0073 49.7761 63.4198 54.3651C63.3837 54.3863 63.3488 54.4096 63.3153 54.4348C59.9406 57.7307 54.8495 58.4045 50.708 56.803C50.5081 56.7254 50.29 56.7072 50.08 56.7504C49.87 56.7936 49.6769 56.8965 49.5239 57.0468L30.9611 75.6095L27.2695 74.3906L26.7819 69.5148L28.3143 67.9824H31.2049C31.5005 67.9824 31.7839 67.865 31.9929 67.656C32.2019 67.447 32.3193 67.1635 32.3194 66.868V63.9773L35.0011 61.2957H37.8917C38.1872 61.2956 38.4707 61.1782 38.6797 60.9692C38.8887 60.7602 39.0061 60.4768 39.0061 60.1812V57.2906L44.3695 51.8924C44.5197 51.7394 44.6226 51.5463 44.6659 51.3363C44.7091 51.1262 44.6909 50.9082 44.6133 50.7083C42.9975 46.5271 43.6775 41.3712 47.0512 37.9965C49.3449 35.7017 52.33 34.5318 55.3051 34.5138ZM11.1446 39.0064C9.31131 39.0064 7.80123 40.5165 7.80123 42.3498C7.80123 44.1831 9.31131 45.6932 11.1446 45.6932C12.9779 45.6932 14.488 44.1831 14.488 42.3498C14.488 40.5165 12.9779 39.0064 11.1446 39.0064ZM56.8375 39.0064C54.3888 39.0064 52.3796 41.0155 52.3797 43.4643C52.3797 45.9132 54.3889 47.922 56.8375 47.9221C59.2864 47.9221 61.2954 45.9131 61.2954 43.4643C61.2952 41.0157 59.2864 39.0064 56.8375 39.0064ZM11.1446 41.2354C11.7733 41.2354 12.2591 41.7212 12.2591 42.3498C12.2591 42.9785 11.7733 43.4643 11.1446 43.4643C10.5159 43.4643 10.0302 42.9785 10.0302 42.3498C10.0302 41.7212 10.5159 41.2354 11.1446 41.2354ZM19.8513 41.2354C19.5558 41.2631 19.2833 41.4071 19.0939 41.6357C18.9045 41.8643 18.8137 42.1587 18.8414 42.4543C18.8691 42.7499 19.0131 43.0223 19.2417 43.2118C19.4703 43.4012 19.7647 43.492 20.0603 43.4643H40.1206C40.2683 43.4664 40.4149 43.4391 40.5519 43.384C40.689 43.329 40.8137 43.2472 40.9189 43.1435C41.0241 43.0398 41.1076 42.9162 41.1646 42.78C41.2216 42.6437 41.2509 42.4975 41.2509 42.3498C41.2509 42.2021 41.2216 42.0559 41.1646 41.9197C41.1076 41.7834 41.0241 41.6598 40.9189 41.5562C40.8137 41.4525 40.689 41.3707 40.5519 41.3156C40.4149 41.2606 40.2683 41.2333 40.1206 41.2354H20.0603C19.9908 41.2288 19.9208 41.2288 19.8513 41.2354ZM56.8375 41.2354C58.0818 41.2354 59.0664 42.2202 59.0664 43.4643C59.0664 44.7086 58.0818 45.6932 56.8375 45.6932C55.5934 45.6931 54.6086 44.7085 54.6086 43.4643C54.6086 42.2202 55.5934 41.2354 56.8375 41.2354ZM11.1446 51.2655C9.31131 51.2655 7.80123 52.7756 7.80123 54.6089C7.80123 56.4422 9.31131 57.9523 11.1446 57.9523C12.9779 57.9523 14.488 56.4422 14.488 54.6089C14.488 52.7756 12.9779 51.2655 11.1446 51.2655ZM11.1446 53.4944C11.7733 53.4944 12.2591 53.9802 12.2591 54.6089C12.2591 55.2376 11.7733 55.7234 11.1446 55.7234C10.5159 55.7234 10.0302 55.2376 10.0302 54.6089C10.0302 53.9802 10.5159 53.4944 11.1446 53.4944Z" fill="black"></path>
</svg>