<svg width="84" height="79" viewBox="0 0 84 79" fill="none" xmlns="http://www.w3.org/2000/svg">
<path d="M83.1552 73.5855H72.4503L72.4537 0.819268C72.4537 0.369009 72.0856 0 71.6287 0H18.9344C18.4809 0 18.1094 0.365629 18.1094 0.819268V43.4515C15.4912 38.2548 10.64 34.6999 10.3605 34.4971C10.0707 34.2872 9.68209 34.2872 9.39229 34.4971C9.01389 34.7747 0 41.3796 0 49.8769C0 55.0126 3.99203 59.2343 9.05804 59.6503V73.5846H0.825076C0.371668 73.5846 7.85481e-05 73.9502 7.85481e-05 74.4039V77.6741C7.85481e-05 78.1244 0.368265 78.4934 0.825076 78.4934H83.1582C83.6116 78.4934 83.9832 78.1278 83.9832 77.6741V74.4039C83.9798 73.9502 83.6116 73.5846 83.1548 73.5846L83.1552 73.5855ZM70.8079 73.5855H54.3421V1.63827H70.8079V73.5855ZM41.9904 73.5855V71.1311H52.6953V73.5855H41.9904ZM19.7594 73.5855V71.1311H30.4643V73.5855H19.7594ZM32.1103 62.1394H40.3432V73.5855H32.1103V62.1394ZM19.7594 1.63827H52.6909V69.4991H41.986V62.1392C42.4395 62.1392 42.811 61.7736 42.811 61.32C42.811 60.8697 42.4429 60.5007 41.986 60.5007H30.4599C30.0065 60.5007 29.6349 60.8663 29.6349 61.32C29.6349 61.7702 30.0031 62.1392 30.4599 62.1392V69.4991H19.7551L19.7594 1.63827ZM1.64685 49.8769C1.64685 43.2821 8.04909 37.6691 9.87981 36.1966C11.7139 37.6659 18.1128 43.2688 18.1128 49.8769C18.1128 54.1087 14.8571 57.5991 10.7014 58.0121V55.2191L12.8048 53.8276C13.1832 53.5771 13.2855 53.0693 13.0333 52.6935C12.781 52.3177 12.2696 52.2162 11.8912 52.4667L10.7048 53.2521V50.3102L12.8083 48.9188C13.1867 48.6683 13.2889 48.1604 13.0367 47.7847C12.7844 47.4089 12.273 47.3073 11.8946 47.5578L10.7048 48.3466V44.1521C10.7048 43.7019 10.3366 43.3329 9.87983 43.3329C9.42643 43.3329 9.05484 43.6985 9.05484 44.1521V48.3466L7.86505 47.5578C7.48664 47.3073 6.9753 47.4089 6.723 47.7847C6.47073 48.1604 6.57299 48.6682 6.95141 48.9188L9.05826 50.3136V53.2555L7.86847 52.4667C7.49006 52.2162 6.97872 52.3177 6.72642 52.6935C6.47411 53.0693 6.57641 53.5771 6.95483 53.8276L9.05828 55.2191V58.0121C4.90261 57.599 1.64685 54.1087 1.64685 49.8769ZM10.7049 59.6503C13.797 59.3964 16.4867 57.724 18.1163 55.29L18.1128 73.5844H10.7049L10.7049 59.6503ZM82.3331 76.8554H1.64685V75.2203H82.3331V76.8554Z" fill="black"></path>
<path d="M23.8772 14.7197H28.817C29.2705 14.7197 29.642 14.3541 29.642 13.9005L29.6386 5.72466C29.6386 5.27441 29.2704 4.9054 28.8136 4.9054H23.8738C23.4204 4.9054 23.0488 5.27103 23.0488 5.72466V13.9005C23.0522 14.3541 23.4204 14.7197 23.8772 14.7197ZM24.6988 6.54393H27.992V13.0846H24.6988V6.54393Z" fill="black"></path>
<path d="M33.7561 14.7197H38.696C39.1494 14.7197 39.5209 14.3541 39.5209 13.9005L39.5175 5.72466C39.5175 5.27441 39.1494 4.9054 38.6925 4.9054H33.7527C33.2993 4.9054 32.9277 5.27103 32.9277 5.72466V13.9005C32.9311 14.3541 33.2993 14.7197 33.7561 14.7197ZM34.5777 6.54393H37.8709V13.0846H34.5777V6.54393Z" fill="black"></path>
<path d="M43.6375 14.7197H48.5773C49.0307 14.7197 49.4023 14.3541 49.4023 13.9005V5.72466C49.4023 5.27441 49.0341 4.9054 48.5773 4.9054H43.6375C43.1841 4.9054 42.8125 5.27103 42.8125 5.72466V13.9005C42.8159 14.3541 43.1841 14.7197 43.6375 14.7197ZM44.4625 6.54393H47.7556V13.0846H44.4625V6.54393Z" fill="black"></path>
<path d="M60.1023 13.9007H65.0421C65.4956 13.9007 65.8671 13.5351 65.8671 13.0815V4.90905C65.8671 4.45879 65.499 4.08978 65.0421 4.08978H60.1023C59.6489 4.08978 59.2773 4.45541 59.2773 4.90905V13.0848C59.2808 13.5351 59.6489 13.9007 60.1023 13.9007ZM60.9273 5.72494H64.2205V12.2656H60.9273V5.72494Z" fill="black"></path>
<path d="M60.1023 26.9822H65.0421C65.4956 26.9822 65.8671 26.6165 65.8671 26.1629V17.9871C65.8671 17.5369 65.499 17.1678 65.0421 17.1678H60.1023C59.6489 17.1678 59.2773 17.5335 59.2773 17.9871V26.1629C59.2808 26.6166 59.6489 26.9822 60.1023 26.9822ZM60.9273 18.8064H64.2205V25.347H60.9273V18.8064Z" fill="black"></path>
<path d="M60.1023 40.0663H65.0421C65.4956 40.0663 65.8671 39.7007 65.8671 39.247V31.0712C65.8671 30.621 65.499 30.252 65.0421 30.252H60.1023C59.6489 30.252 59.2773 30.6176 59.2773 31.0712V39.247C59.2808 39.6973 59.6489 40.0663 60.1023 40.0663ZM60.9273 31.8871H64.2205V38.4278H60.9273V31.8871Z" fill="black"></path>
<path d="M60.1023 53.1478H65.0421C65.4956 53.1478 65.8671 52.7821 65.8671 52.3285V44.1527C65.8671 43.7024 65.499 43.3334 65.0421 43.3334H60.1023C59.6489 43.3334 59.2773 43.6991 59.2773 44.1527V52.3285C59.2808 52.7821 59.6489 53.1478 60.1023 53.1478ZM60.9273 44.972H64.2205V51.5126H60.9273V44.972Z" fill="black"></path>
<path d="M60.1023 66.2292H65.0421C65.4956 66.2292 65.8671 65.8636 65.8671 65.4099V57.2341C65.8671 56.7839 65.499 56.4149 65.0421 56.4149H60.1023C59.6489 56.4149 59.2773 56.7805 59.2773 57.2341V65.4099C59.2808 65.8636 59.6489 66.2292 60.1023 66.2292ZM60.9273 58.0534H64.2205V64.594H60.9273V58.0534Z" fill="black"></path>
<path d="M23.8777 26.9822H28.8175C29.271 26.9822 29.6425 26.6165 29.6425 26.1629V17.9871C29.6425 17.5369 29.2744 17.1678 28.8175 17.1678H23.8777C23.4243 17.1678 23.0527 17.5335 23.0527 17.9871V26.1629C23.0527 26.6166 23.4209 26.9822 23.8777 26.9822ZM24.6993 18.8064H27.9925V25.347H24.6993V18.8064Z" fill="black"></path>
<path d="M33.7566 26.9822H38.6964C39.1499 26.9822 39.5214 26.6165 39.5214 26.1629V17.9871C39.5214 17.5369 39.1533 17.1678 38.6964 17.1678H33.7566C33.3032 17.1678 32.9316 17.5335 32.9316 17.9871V26.1629C32.9316 26.6166 33.2998 26.9822 33.7566 26.9822ZM34.5782 18.8064H37.8714V25.347H34.5782V18.8064Z" fill="black"></path>
<path d="M43.6375 26.9822H48.5773C49.0307 26.9822 49.4023 26.6165 49.4023 26.1629V17.9871C49.4023 17.5369 49.0341 17.1678 48.5773 17.1678H43.6375C43.1841 17.1678 42.8125 17.5335 42.8125 17.9871V26.1629C42.8159 26.6166 43.1841 26.9822 43.6375 26.9822ZM44.4625 18.8064H47.7556V25.347H44.4625V18.8064Z" fill="black"></path>
<path d="M23.8777 39.2472H28.8175C29.271 39.2472 29.6425 38.8816 29.6425 38.428V30.2522C29.6425 29.8019 29.2744 29.4329 28.8175 29.4329H23.8777C23.4243 29.4329 23.0527 29.7986 23.0527 30.2522V38.428C23.0527 38.8816 23.4209 39.2472 23.8777 39.2472ZM24.6993 31.0715H27.9925V37.6121H24.6993V31.0715Z" fill="black"></path>
<path d="M33.7566 39.2472H38.6964C39.1499 39.2472 39.5214 38.8816 39.5214 38.428V30.2522C39.5214 29.8019 39.1533 29.4329 38.6964 29.4329H33.7566C33.3032 29.4329 32.9316 29.7986 32.9316 30.2522V38.428C32.9316 38.8816 33.2998 39.2472 33.7566 39.2472ZM34.5782 31.0715H37.8714V37.6121H34.5782V31.0715Z" fill="black"></path>
<path d="M43.6375 39.2472H48.5773C49.0307 39.2472 49.4023 38.8816 49.4023 38.428V30.2522C49.4023 29.8019 49.0341 29.4329 48.5773 29.4329H43.6375C43.1841 29.4329 42.8125 29.7986 42.8125 30.2522V38.428C42.8159 38.8816 43.1841 39.2472 43.6375 39.2472ZM44.4625 31.0715H47.7556V37.6121H44.4625V31.0715Z" fill="black"></path>
<path d="M23.8777 51.5123H28.8175C29.271 51.5123 29.6425 51.1466 29.6425 50.693V42.5172C29.6425 42.0669 29.2744 41.6979 28.8175 41.6979H23.8777C23.4243 41.6979 23.0527 42.0636 23.0527 42.5172V50.693C23.0527 51.1466 23.4209 51.5123 23.8777 51.5123ZM24.6993 43.3365H27.9925V49.8771H24.6993V43.3365Z" fill="black"></path>
<path d="M33.7566 51.5123H38.6964C39.1499 51.5123 39.5214 51.1466 39.5214 50.693V42.5172C39.5214 42.0669 39.1533 41.6979 38.6964 41.6979H33.7566C33.3032 41.6979 32.9316 42.0636 32.9316 42.5172V50.693C32.9316 51.1466 33.2998 51.5123 33.7566 51.5123ZM34.5782 43.3365H37.8714V49.8771H34.5782V43.3365Z" fill="black"></path>
<path d="M43.6375 51.5123H48.5773C49.0307 51.5123 49.4023 51.1466 49.4023 50.693V42.5172C49.4023 42.0669 49.0341 41.6979 48.5773 41.6979H43.6375C43.1841 41.6979 42.8125 42.0636 42.8125 42.5172V50.693C42.8159 51.1466 43.1841 51.5123 43.6375 51.5123ZM44.4625 43.3365H47.7556V49.8771H44.4625V43.3365Z" fill="black"></path>
</svg>