<svg xmlns="http://www.w3.org/2000/svg" width="48.750" height="48.750" viewBox="0 0 48.750 48.750" fill="none">
  <path d="M 24.375 0 C 19.554 0 14.841 1.43 10.833 4.108 C 6.825 6.786 3.7 10.593 1.855 15.047 C 0.011 19.501 -0.472 24.402 0.468 29.13 C 1.409 33.859 3.73 38.202 7.139 41.611 C 10.548 45.02 14.891 47.341 19.62 48.282 C 24.348 49.222 29.249 48.739 33.703 46.895 C 38.157 45.05 41.964 41.925 44.642 37.917 C 47.32 33.909 48.75 29.196 48.75 24.375 C 48.743 17.912 46.173 11.717 41.603 7.147 C 37.033 2.577 30.838 0.007 24.375 0 Z M 24.375 45 C 20.296 45 16.308 43.79 12.916 41.524 C 9.525 39.258 6.881 36.037 5.32 32.268 C 3.759 28.499 3.35 24.352 4.146 20.351 C 4.942 16.35 6.906 12.675 9.791 9.791 C 12.675 6.906 16.35 4.942 20.351 4.146 C 24.352 3.35 28.499 3.759 32.268 5.32 C 36.037 6.881 39.258 9.525 41.524 12.916 C 43.79 16.308 45 20.296 45 24.375 C 44.994 29.843 42.819 35.086 38.952 38.952 C 35.086 42.819 29.843 44.994 24.375 45 Z M 35.077 23.048 C 35.251 23.223 35.389 23.429 35.484 23.657 C 35.578 23.885 35.626 24.129 35.626 24.375 C 35.626 24.621 35.578 24.865 35.484 25.093 C 35.389 25.321 35.251 25.527 35.077 25.702 L 27.577 33.202 C 27.225 33.553 26.748 33.751 26.25 33.751 C 25.752 33.751 25.275 33.553 24.923 33.202 C 24.572 32.85 24.374 32.373 24.374 31.875 C 24.374 31.377 24.572 30.9 24.923 30.548 L 29.224 26.25 L 15 26.25 C 14.503 26.25 14.026 26.052 13.674 25.701 C 13.323 25.349 13.125 24.872 13.125 24.375 C 13.125 23.878 13.323 23.401 13.674 23.049 C 14.026 22.698 14.503 22.5 15 22.5 L 29.224 22.5 L 24.923 18.202 C 24.572 17.85 24.374 17.373 24.374 16.875 C 24.374 16.377 24.572 15.9 24.923 15.548 C 25.275 15.197 25.752 14.999 26.25 14.999 C 26.748 14.999 27.225 15.197 27.577 15.548 L 35.077 23.048 Z" fill="currentColor" fill-rule="nonzero"></path>
</svg>