<svg xmlns="http://www.w3.org/2000/svg" width="933" height="802.568" viewBox="0 0 933 802.568" fill="none">
  <path d="M 927.862 58.093 C 906.951 10.755 836.316 -3.587 742.215 0.727 C 566.094 8.889 400.893 89.924 203.28 265.054 C 193.594 273.61 184.726 283.057 176.792 293.27 C 165.175 308.078 161.69 324.052 178.07 324.052 C 183.691 323.035 188.942 320.541 193.289 316.823 C 383.235 157.434 519.856 66.955 673.672 66.955 C 733.966 66.955 774.395 93.306 774.395 149.389 C 774.395 270.767 565.281 442.748 328.052 508.043 C 325.147 508.742 317.248 510.958 309.812 512.357 C 348.266 443.215 392.18 369.525 428.775 317.523 C 398.802 326.384 377.426 326.734 308.651 324.868 C 278.678 393.194 253.584 454.991 223.611 522.151 C 150.885 527.398 61.663 497.432 2.298 467.117 C -9.32 517.021 25.533 534.86 52.602 548.735 C 127.418 586.28 161.69 623.824 155.416 698.796 C 151.699 743.453 149.143 792.074 190.966 802.568 C 216.426 720.185 247.878 639.789 285.067 562.027 C 308.302 554.915 339.902 545.237 369.875 535.793 L 371.037 535.793 L 386.604 531.013 C 424.012 519.353 480.589 500.114 531.822 482.042 C 741.518 405.787 885.11 267.619 925.887 136.797 C 934.642 111.399 935.332 83.901 927.862 58.093 Z M 770.561 62.99 C 770.653 56.444 772.67 50.07 776.358 44.67 C 780.046 39.269 785.242 35.082 791.293 32.635 C 797.343 30.188 803.98 29.589 810.368 30.914 C 816.757 32.239 822.613 35.429 827.202 40.083 C 831.791 44.736 834.907 50.647 836.161 57.072 C 837.414 63.498 836.749 70.151 834.247 76.198 C 831.746 82.245 827.52 87.416 822.101 91.061 C 816.682 94.706 810.311 96.663 803.787 96.687 C 799.39 96.703 795.034 95.84 790.973 94.148 C 786.912 92.455 783.227 89.968 780.134 86.831 C 777.041 83.695 774.601 79.971 772.958 75.878 C 771.314 71.784 770.5 67.403 770.561 62.99 Z" fill="currentColor" fill-rule="nonzero"></path>
</svg>