<svg xmlns="http://www.w3.org/2000/svg" width="25.500" height="19.500" viewBox="0 0 25.500 19.500" fill="none">
  <path d="M 24.75 0 L 0.75 0 C 0.551 0 0.36 0.079 0.22 0.22 C 0.079 0.36 0 0.551 0 0.75 L 0 17.75 C 0 18.214 0.184 18.659 0.513 18.987 C 0.841 19.316 1.286 19.5 1.75 19.5 L 23.75 19.5 C 24.214 19.5 24.659 19.316 24.987 18.987 C 25.316 18.659 25.5 18.214 25.5 17.75 L 25.5 0.75 C 25.5 0.551 25.421 0.36 25.28 0.22 C 25.14 0.079 24.949 0 24.75 0 Z M 12.75 10.733 L 2.677 1.5 L 22.823 1.5 L 12.75 10.733 Z M 9.459 9.75 L 1.5 17.045 L 1.5 2.455 L 9.459 9.75 Z M 10.569 10.767 L 12.25 12.302 C 12.388 12.429 12.569 12.499 12.756 12.499 C 12.944 12.499 13.124 12.429 13.263 12.302 L 14.938 10.767 L 22.823 18 L 2.679 18 L 10.569 10.767 Z M 16.041 9.75 L 24 2.455 L 24 17.045 L 16.041 9.75 Z" fill="currentColor" fill-rule="nonzero"></path>
</svg>