<svg xmlns="http://www.w3.org/2000/svg" width="9.376" height="17.188" viewBox="0 0 9.376 17.188" fill="none">
  <path d="M 9.147 9.147 L 1.334 16.959 C 1.262 17.032 1.176 17.09 1.081 17.129 C 0.986 17.168 0.884 17.188 0.782 17.188 C 0.679 17.188 0.577 17.168 0.483 17.129 C 0.388 17.09 0.302 17.032 0.229 16.959 C 0.156 16.887 0.099 16.801 0.06 16.706 C 0.02 16.611 0 16.509 0 16.407 C 0 16.304 0.02 16.202 0.06 16.108 C 0.099 16.013 0.156 15.927 0.229 15.854 L 7.49 8.594 L 0.229 1.334 C 0.082 1.188 0 0.989 0 0.782 C 0 0.574 0.082 0.376 0.229 0.229 C 0.376 0.082 0.574 0 0.782 0 C 0.989 0 1.188 0.082 1.334 0.229 L 9.147 8.041 C 9.22 8.114 9.277 8.2 9.316 8.295 C 9.356 8.39 9.376 8.492 9.376 8.594 C 9.376 8.697 9.356 8.799 9.316 8.893 C 9.277 8.988 9.22 9.074 9.147 9.147 Z" fill="currentColor" fill-rule="nonzero"></path>
</svg>