<svg xmlns="http://www.w3.org/2000/svg" width="23.588" height="23.588" viewBox="0 0 23.588 23.588" fill="none">
  <path d="M 23.322 22.04 L 17.65 16.369 C 19.294 14.396 20.114 11.864 19.939 9.301 C 19.764 6.739 18.608 4.342 16.711 2.61 C 14.814 0.878 12.322 -0.056 9.754 0.003 C 7.186 0.061 4.74 1.107 2.923 2.923 C 1.107 4.74 0.061 7.186 0.003 9.754 C -0.056 12.322 0.878 14.814 2.61 16.711 C 4.342 18.608 6.739 19.764 9.301 19.939 C 11.864 20.114 14.396 19.294 16.369 17.65 L 22.04 23.322 C 22.124 23.407 22.224 23.473 22.334 23.519 C 22.444 23.565 22.562 23.588 22.681 23.588 C 22.8 23.588 22.918 23.565 23.028 23.519 C 23.138 23.473 23.238 23.407 23.322 23.322 C 23.407 23.238 23.473 23.138 23.519 23.028 C 23.565 22.918 23.588 22.8 23.588 22.681 C 23.588 22.562 23.565 22.444 23.519 22.334 C 23.473 22.224 23.407 22.124 23.322 22.04 Z M 1.838 9.994 C 1.838 8.381 2.316 6.804 3.212 5.462 C 4.108 4.121 5.382 3.076 6.873 2.458 C 8.363 1.841 10.003 1.68 11.585 1.994 C 13.167 2.309 14.62 3.086 15.761 4.226 C 16.902 5.367 17.679 6.82 17.993 8.403 C 18.308 9.985 18.147 11.625 17.529 13.115 C 16.912 14.605 15.866 15.879 14.525 16.775 C 13.184 17.672 11.607 18.15 9.994 18.15 C 7.831 18.148 5.758 17.288 4.229 15.758 C 2.7 14.229 1.84 12.156 1.838 9.994 Z" fill="currentColor" fill-rule="nonzero"></path>
</svg>