<svg xmlns="http://www.w3.org/2000/svg" width="69.074" height="78" viewBox="0 0 69.074 78" fill="none">
  <path d="M 5.572 0 C 2.505 0 0 2.505 0 5.573 L 0 63.525 C 0 66.592 2.505 69.097 5.572 69.097 L 24.518 69.097 C 24.517 69.132 24.517 69.167 24.518 69.201 L 25.11 75.296 C 25.127 75.516 25.209 75.726 25.345 75.9 C 25.482 76.074 25.666 76.203 25.876 76.271 L 30.891 77.943 C 31.09 78.009 31.303 78.018 31.506 77.969 C 31.709 77.919 31.895 77.814 32.041 77.664 L 50.673 59.032 C 55.476 60.595 61.125 59.795 64.987 55.932 C 65.071 55.851 65.141 55.757 65.196 55.654 C 70.378 50.206 70.389 41.624 65.092 36.325 C 62.401 33.634 58.856 32.299 55.305 32.32 C 53.938 32.328 52.586 32.538 51.265 32.947 L 51.265 16.717 C 51.269 16.57 51.243 16.423 51.189 16.285 C 51.135 16.148 51.054 16.022 50.952 15.916 L 35.349 0.314 C 35.243 0.211 35.118 0.13 34.98 0.077 C 34.843 0.023 34.696 -0.003 34.548 0 L 5.572 0 Z M 5.572 2.229 L 32.319 2.229 L 32.319 16.717 C 32.319 17.013 32.437 17.296 32.646 17.505 C 32.855 17.714 33.138 17.832 33.434 17.832 L 49.036 17.832 L 49.036 33.887 C 47.764 34.538 46.549 35.364 45.484 36.429 C 41.614 40.3 40.773 45.967 42.35 50.778 L 39.598 53.494 L 20.06 53.494 C 19.991 53.488 19.921 53.488 19.851 53.494 C 19.556 53.522 19.283 53.666 19.094 53.895 C 18.904 54.123 18.814 54.418 18.841 54.713 C 18.869 55.009 19.013 55.281 19.242 55.471 C 19.47 55.66 19.765 55.751 20.06 55.723 L 37.404 55.723 L 37.091 56.037 C 36.988 56.143 36.907 56.268 36.854 56.406 C 36.8 56.543 36.774 56.69 36.777 56.838 L 36.777 59.067 L 34.548 59.067 C 34.401 59.063 34.254 59.089 34.116 59.143 C 33.979 59.197 33.853 59.277 33.747 59.38 L 30.404 62.724 C 30.301 62.83 30.221 62.955 30.167 63.093 C 30.113 63.23 30.087 63.377 30.09 63.525 L 30.09 65.754 L 27.862 65.754 C 27.714 65.75 27.567 65.776 27.43 65.83 C 27.292 65.884 27.167 65.964 27.061 66.067 L 26.259 66.868 C 26.236 66.867 26.213 66.867 26.19 66.868 L 5.572 66.868 C 3.701 66.868 2.229 65.396 2.229 63.525 L 2.229 5.573 C 2.229 3.701 3.701 2.229 5.572 2.229 Z M 34.548 2.682 L 47.469 15.603 L 34.548 15.603 L 34.548 2.682 Z M 11.145 26.747 C 9.311 26.747 7.801 28.257 7.801 30.091 C 7.801 31.924 9.311 33.434 11.145 33.434 C 12.978 33.434 14.488 31.924 14.488 30.091 C 14.488 28.257 12.978 26.747 11.145 26.747 Z M 11.145 28.976 C 11.773 28.976 12.259 29.462 12.259 30.091 C 12.259 30.719 11.773 31.205 11.145 31.205 C 10.516 31.205 10.03 30.719 10.03 30.091 C 10.03 29.462 10.516 28.976 11.145 28.976 Z M 19.851 28.976 C 19.556 29.004 19.283 29.148 19.094 29.377 C 18.904 29.605 18.814 29.9 18.841 30.195 C 18.869 30.491 19.013 30.763 19.242 30.953 C 19.47 31.142 19.765 31.233 20.06 31.205 L 40.121 31.205 C 40.268 31.207 40.415 31.18 40.552 31.125 C 40.689 31.07 40.814 30.988 40.919 30.884 C 41.024 30.781 41.108 30.657 41.165 30.521 C 41.222 30.385 41.251 30.238 41.251 30.091 C 41.251 29.943 41.222 29.797 41.165 29.661 C 41.108 29.524 41.024 29.401 40.919 29.297 C 40.814 29.193 40.689 29.112 40.552 29.057 C 40.415 29.001 40.268 28.974 40.121 28.976 L 20.06 28.976 C 19.991 28.97 19.921 28.97 19.851 28.976 Z M 55.305 34.514 C 58.28 34.496 61.265 35.632 63.524 37.892 C 68.043 42.412 68.007 49.776 63.42 54.365 C 63.384 54.386 63.349 54.41 63.315 54.435 C 59.941 57.731 54.849 58.404 50.708 56.803 C 50.508 56.725 50.29 56.707 50.08 56.75 C 49.87 56.794 49.677 56.897 49.524 57.047 L 30.961 75.61 L 27.269 74.391 L 26.782 69.515 L 28.314 67.982 L 31.205 67.982 C 31.5 67.982 31.784 67.865 31.993 67.656 C 32.202 67.447 32.319 67.164 32.319 66.868 L 32.319 63.977 L 35.001 61.296 L 37.892 61.296 C 38.187 61.296 38.471 61.178 38.68 60.969 C 38.889 60.76 39.006 60.477 39.006 60.181 L 39.006 57.291 L 44.369 51.892 C 44.52 51.739 44.623 51.546 44.666 51.336 C 44.709 51.126 44.691 50.908 44.613 50.708 C 42.997 46.527 43.678 41.371 47.051 37.996 C 49.345 35.702 52.33 34.532 55.305 34.514 Z M 11.145 39.006 C 9.311 39.006 7.801 40.517 7.801 42.35 C 7.801 44.183 9.311 45.693 11.145 45.693 C 12.978 45.693 14.488 44.183 14.488 42.35 C 14.488 40.517 12.978 39.006 11.145 39.006 Z M 56.838 39.006 C 54.389 39.006 52.38 41.015 52.38 43.464 C 52.38 45.913 54.389 47.922 56.838 47.922 C 59.286 47.922 61.295 45.913 61.295 43.464 C 61.295 41.016 59.286 39.006 56.838 39.006 Z M 11.145 41.235 C 11.773 41.235 12.259 41.721 12.259 42.35 C 12.259 42.978 11.773 43.464 11.145 43.464 C 10.516 43.464 10.03 42.978 10.03 42.35 C 10.03 41.721 10.516 41.235 11.145 41.235 Z M 19.851 41.235 C 19.556 41.263 19.283 41.407 19.094 41.636 C 18.904 41.864 18.814 42.159 18.841 42.454 C 18.869 42.75 19.013 43.022 19.242 43.212 C 19.47 43.401 19.765 43.492 20.06 43.464 L 40.121 43.464 C 40.268 43.466 40.415 43.439 40.552 43.384 C 40.689 43.329 40.814 43.247 40.919 43.144 C 41.024 43.04 41.108 42.916 41.165 42.78 C 41.222 42.644 41.251 42.498 41.251 42.35 C 41.251 42.202 41.222 42.056 41.165 41.92 C 41.108 41.783 41.024 41.66 40.919 41.556 C 40.814 41.452 40.689 41.371 40.552 41.316 C 40.415 41.261 40.268 41.233 40.121 41.235 L 20.06 41.235 C 19.991 41.229 19.921 41.229 19.851 41.235 Z M 56.838 41.235 C 58.082 41.235 59.066 42.22 59.066 43.464 C 59.066 44.709 58.082 45.693 56.838 45.693 C 55.593 45.693 54.609 44.708 54.609 43.464 C 54.609 42.22 55.593 41.235 56.838 41.235 Z M 11.145 51.266 C 9.311 51.266 7.801 52.776 7.801 54.609 C 7.801 56.442 9.311 57.952 11.145 57.952 C 12.978 57.952 14.488 56.442 14.488 54.609 C 14.488 52.776 12.978 51.266 11.145 51.266 Z M 11.145 53.494 C 11.773 53.494 12.259 53.98 12.259 54.609 C 12.259 55.238 11.773 55.723 11.145 55.723 C 10.516 55.723 10.03 55.238 10.03 54.609 C 10.03 53.98 10.516 53.494 11.145 53.494 Z" fill="currentColor" fill-rule="nonzero"></path>
</svg>