<svg xmlns="http://www.w3.org/2000/svg" width="18.706" height="17.988" viewBox="0 0 18.706 17.988" fill="none">
  <path d="M 18.599 16.893 C 17.231 14.527 15.123 12.831 12.662 12.027 C 13.879 11.303 14.825 10.198 15.354 8.884 C 15.883 7.57 15.966 6.119 15.59 4.753 C 15.214 3.387 14.4 2.182 13.274 1.324 C 12.147 0.465 10.769 0 9.353 0 C 7.936 0 6.559 0.465 5.432 1.324 C 4.305 2.182 3.492 3.387 3.116 4.753 C 2.74 6.119 2.823 7.57 3.352 8.884 C 3.881 10.198 4.827 11.303 6.044 12.027 C 3.583 12.83 1.474 14.527 0.106 16.893 C 0.056 16.975 0.023 17.066 0.008 17.161 C -0.006 17.256 -0.002 17.353 0.022 17.446 C 0.046 17.539 0.088 17.626 0.146 17.703 C 0.203 17.779 0.276 17.843 0.359 17.891 C 0.442 17.939 0.534 17.97 0.629 17.982 C 0.725 17.994 0.821 17.987 0.914 17.961 C 1.006 17.935 1.092 17.89 1.167 17.83 C 1.242 17.77 1.305 17.696 1.35 17.612 C 3.043 14.687 6.035 12.94 9.353 12.94 C 12.671 12.94 15.662 14.687 17.355 17.612 C 17.401 17.696 17.463 17.77 17.538 17.83 C 17.613 17.89 17.699 17.935 17.792 17.961 C 17.884 17.987 17.981 17.994 18.076 17.982 C 18.171 17.97 18.263 17.939 18.346 17.891 C 18.429 17.843 18.502 17.779 18.56 17.703 C 18.618 17.626 18.66 17.539 18.683 17.446 C 18.707 17.353 18.712 17.256 18.697 17.161 C 18.683 17.066 18.65 16.975 18.599 16.893 Z M 4.322 6.471 C 4.322 5.476 4.617 4.503 5.169 3.676 C 5.722 2.849 6.508 2.204 7.427 1.823 C 8.347 1.442 9.358 1.342 10.334 1.537 C 11.31 1.731 12.207 2.21 12.91 2.914 C 13.614 3.617 14.093 4.514 14.287 5.49 C 14.481 6.466 14.382 7.477 14.001 8.397 C 13.62 9.316 12.975 10.102 12.148 10.655 C 11.321 11.207 10.348 11.502 9.353 11.502 C 8.019 11.501 6.74 10.97 5.797 10.027 C 4.853 9.084 4.323 7.805 4.322 6.471 Z" fill="currentColor" fill-rule="nonzero"></path>
</svg>