<svg xmlns="http://www.w3.org/2000/svg" width="6.376" height="11.688" viewBox="0 0 6.376 11.688" fill="none">
  <path d="M 6.22 6.22 L 0.907 11.532 C 0.858 11.582 0.799 11.621 0.735 11.648 C 0.67 11.674 0.601 11.688 0.532 11.688 C 0.462 11.688 0.393 11.674 0.328 11.648 C 0.264 11.621 0.205 11.582 0.156 11.532 C 0.106 11.483 0.067 11.424 0.04 11.36 C 0.014 11.295 0 11.226 0 11.157 C 0 11.087 0.014 11.018 0.04 10.953 C 0.067 10.889 0.106 10.83 0.156 10.781 L 5.093 5.844 L 0.156 0.907 C 0.056 0.808 0 0.673 0 0.532 C 0 0.391 0.056 0.255 0.156 0.156 C 0.255 0.056 0.391 0 0.532 0 C 0.673 0 0.808 0.056 0.907 0.156 L 6.22 5.468 C 6.269 5.518 6.308 5.576 6.335 5.641 C 6.362 5.705 6.376 5.774 6.376 5.844 C 6.376 5.914 6.362 5.983 6.335 6.047 C 6.308 6.112 6.269 6.171 6.22 6.22 Z" fill="currentColor" fill-rule="nonzero"></path>
</svg>