<svg xmlns="http://www.w3.org/2000/svg" width="47.125" height="47.125" viewBox="0 0 47.125 47.125" fill="none">
  <path d="M 23.563 0 C 18.902 0 14.347 1.382 10.472 3.971 C 6.597 6.56 3.577 10.24 1.794 14.546 C 0.01 18.851 -0.456 23.589 0.453 28.159 C 1.362 32.73 3.606 36.928 6.901 40.224 C 10.197 43.519 14.395 45.763 18.966 46.672 C 23.536 47.581 28.274 47.115 32.579 45.331 C 36.885 43.548 40.565 40.528 43.154 36.653 C 45.743 32.778 47.125 28.223 47.125 23.563 C 47.118 17.315 44.634 11.326 40.216 6.909 C 35.799 2.491 29.81 0.007 23.563 0 Z M 23.563 43.5 C 19.619 43.5 15.765 42.331 12.486 40.14 C 9.207 37.949 6.652 34.835 5.143 31.192 C 3.634 27.549 3.239 23.54 4.008 19.673 C 4.777 15.805 6.676 12.253 9.465 9.465 C 12.253 6.676 15.805 4.777 19.673 4.008 C 23.54 3.239 27.549 3.634 31.192 5.143 C 34.835 6.652 37.949 9.207 40.14 12.486 C 42.331 15.765 43.5 19.619 43.5 23.563 C 43.494 28.848 41.392 33.916 37.654 37.654 C 33.916 41.392 28.848 43.494 23.563 43.5 Z M 33.907 22.28 C 34.076 22.448 34.21 22.648 34.301 22.868 C 34.392 23.088 34.439 23.324 34.439 23.563 C 34.439 23.801 34.392 24.037 34.301 24.257 C 34.21 24.477 34.076 24.677 33.907 24.845 L 26.657 32.095 C 26.317 32.435 25.856 32.626 25.375 32.626 C 24.894 32.626 24.433 32.435 24.093 32.095 C 23.753 31.755 23.562 31.293 23.562 30.813 C 23.562 30.332 23.753 29.87 24.093 29.53 L 28.25 25.375 L 14.5 25.375 C 14.019 25.375 13.558 25.184 13.218 24.844 C 12.878 24.504 12.688 24.043 12.688 23.563 C 12.688 23.082 12.878 22.621 13.218 22.281 C 13.558 21.941 14.019 21.75 14.5 21.75 L 28.25 21.75 L 24.093 17.595 C 23.753 17.255 23.562 16.793 23.562 16.313 C 23.562 15.832 23.753 15.37 24.093 15.03 C 24.433 14.69 24.894 14.499 25.375 14.499 C 25.856 14.499 26.317 14.69 26.657 15.03 L 33.907 22.28 Z" fill="currentColor" fill-rule="nonzero"></path>
</svg>