<svg xmlns="http://www.w3.org/2000/svg" width="73" height="77" viewBox="0 0 73 77" fill="none">
  <path d="M 72.552 20.245 C 72.416 20.163 72.262 20.118 72.104 20.112 C 71.945 20.107 71.788 20.143 71.647 20.215 L 54.368 29.168 C 54.26 29.223 54.164 29.3 54.086 29.392 C 54.008 29.485 53.949 29.592 53.913 29.707 C 53.876 29.822 53.863 29.944 53.874 30.064 C 53.884 30.185 53.919 30.302 53.975 30.409 L 54.62 31.648 C 51.294 33.066 47.243 33.398 43.317 33.72 C 38.573 34.109 33.735 34.506 29.846 36.726 C 28.142 35.816 26.67 35.186 25.248 34.57 C 23.739 33.958 22.272 33.25 20.855 32.45 L 21.523 31.484 C 21.593 31.384 21.642 31.272 21.668 31.153 C 21.693 31.035 21.695 30.913 21.673 30.793 C 21.652 30.674 21.606 30.56 21.54 30.459 C 21.474 30.357 21.388 30.269 21.288 30.2 L 5.258 19.174 C 5.127 19.085 4.976 19.03 4.818 19.016 C 4.66 19.001 4.501 19.028 4.356 19.092 C 4.211 19.157 4.086 19.257 3.991 19.384 C 3.897 19.511 3.837 19.66 3.817 19.817 L 0.007 50.017 C -0.014 50.184 0.012 50.354 0.081 50.508 C 0.15 50.661 0.26 50.793 0.399 50.889 L 4.837 53.944 C 4.937 54.013 5.049 54.062 5.168 54.088 C 5.287 54.114 5.41 54.116 5.529 54.094 C 5.649 54.072 5.763 54.027 5.865 53.961 C 5.968 53.896 6.056 53.81 6.125 53.711 L 7.076 52.337 C 9.146 53.684 10.774 54.789 12.239 55.839 L 11.318 57.276 C 10.91 57.913 10.681 58.646 10.655 59.401 C 10.628 60.156 10.806 60.904 11.169 61.567 C 11.532 62.229 12.068 62.783 12.719 63.169 C 13.37 63.555 14.113 63.759 14.871 63.761 C 15.04 63.76 15.209 63.75 15.378 63.73 C 15.215 64.557 15.307 65.415 15.642 66.189 C 15.978 66.963 16.54 67.618 17.256 68.068 C 17.933 68.494 18.718 68.719 19.519 68.718 C 19.687 68.717 19.856 68.707 20.023 68.688 C 19.816 69.654 19.956 70.662 20.418 71.535 C 20.88 72.409 21.636 73.094 22.553 73.469 C 23.469 73.845 24.489 73.888 25.435 73.591 C 26.38 73.293 27.19 72.675 27.725 71.843 C 28.012 72.512 28.467 73.095 29.047 73.536 C 29.627 73.978 30.311 74.262 31.034 74.362 C 31.757 74.461 32.493 74.373 33.172 74.105 C 33.85 73.836 34.447 73.398 34.905 72.832 L 40.12 76.143 C 40.975 76.695 41.97 76.991 42.989 76.998 C 43.694 77.019 44.394 76.86 45.021 76.538 C 45.649 76.215 46.184 75.739 46.577 75.155 C 47.118 74.293 47.308 73.257 47.106 72.26 C 47.992 72.53 48.941 72.512 49.817 72.211 C 50.692 71.909 51.45 71.339 51.98 70.582 C 52.535 69.701 52.72 68.637 52.495 67.622 C 53.364 67.858 54.284 67.82 55.131 67.514 C 55.977 67.207 56.707 66.647 57.221 65.911 C 57.724 65.138 57.956 64.222 57.883 63.304 C 58.768 63.625 59.726 63.694 60.648 63.501 C 61.175 63.4 61.676 63.192 62.119 62.891 C 62.562 62.589 62.939 62.201 63.226 61.749 C 63.513 61.297 63.705 60.791 63.789 60.263 C 63.872 59.735 63.847 59.195 63.714 58.677 C 63.472 57.665 62.922 56.753 62.139 56.066 C 62.826 55.581 63.403 55.083 63.968 54.597 C 64.553 54.071 65.172 53.585 65.823 53.142 L 66.468 54.38 C 66.524 54.488 66.6 54.583 66.693 54.661 C 66.786 54.739 66.893 54.797 67.009 54.834 C 67.099 54.862 67.193 54.876 67.287 54.877 C 67.436 54.877 67.583 54.842 67.716 54.773 L 72.503 52.292 C 72.653 52.214 72.778 52.097 72.866 51.953 C 72.954 51.809 73 51.644 73 51.476 L 73 21.032 C 72.999 20.873 72.958 20.718 72.879 20.58 C 72.801 20.442 72.688 20.327 72.552 20.245 Z M 5.131 51.908 L 1.91 49.693 L 5.46 21.546 L 19.479 31.198 L 5.131 51.908 Z M 13.603 61.549 C 13.071 61.209 12.695 60.673 12.559 60.058 C 12.423 59.443 12.537 58.799 12.876 58.267 L 16.203 53.07 C 16.372 52.806 16.591 52.579 16.849 52.4 C 17.107 52.222 17.397 52.097 17.704 52.031 C 17.876 51.993 18.052 51.974 18.228 51.974 C 18.679 51.974 19.12 52.102 19.5 52.344 C 20.033 52.684 20.408 53.22 20.545 53.835 C 20.681 54.451 20.567 55.095 20.227 55.626 L 16.9 60.823 C 16.732 61.087 16.513 61.315 16.256 61.494 C 15.999 61.673 15.709 61.8 15.403 61.867 C 15.096 61.934 14.78 61.941 14.471 61.886 C 14.163 61.832 13.868 61.717 13.603 61.549 Z M 18.238 66.511 C 17.976 66.347 17.749 66.132 17.571 65.879 C 17.393 65.627 17.267 65.342 17.2 65.04 C 17.133 64.739 17.127 64.427 17.183 64.123 C 17.238 63.819 17.353 63.529 17.522 63.27 L 23.025 54.815 C 23.247 54.476 23.55 54.198 23.907 54.006 C 24.265 53.814 24.664 53.714 25.07 53.715 C 25.526 53.714 25.972 53.842 26.358 54.084 C 26.8 54.361 27.137 54.778 27.313 55.268 C 27.49 55.758 27.496 56.294 27.331 56.788 L 21.566 65.779 C 21.217 66.309 20.674 66.683 20.053 66.82 C 19.431 66.956 18.781 66.845 18.24 66.51 L 18.238 66.511 Z M 26.168 70.854 C 25.826 71.381 25.288 71.752 24.673 71.886 C 24.058 72.019 23.414 71.905 22.883 71.567 C 22.352 71.23 21.976 70.696 21.839 70.084 C 21.701 69.471 21.812 68.829 22.147 68.297 L 23.118 66.781 L 28.617 58.327 C 28.766 58.098 28.893 57.855 28.994 57.601 L 29.058 57.502 C 29.226 57.239 29.445 57.011 29.702 56.833 C 29.958 56.654 30.248 56.527 30.554 56.459 C 30.86 56.392 31.176 56.385 31.484 56.439 C 31.793 56.494 32.087 56.608 32.351 56.776 C 32.615 56.944 32.844 57.162 33.023 57.418 C 33.203 57.673 33.33 57.962 33.398 58.267 C 33.465 58.572 33.472 58.887 33.418 59.194 C 33.363 59.502 33.248 59.795 33.08 60.059 L 26.168 70.854 Z M 30.332 72.188 C 29.799 71.849 29.424 71.313 29.287 70.698 C 29.151 70.083 29.265 69.439 29.604 68.907 L 30.957 66.793 L 32.932 63.713 C 33.274 63.185 33.811 62.814 34.426 62.681 C 35.042 62.547 35.685 62.662 36.216 62.999 C 36.747 63.337 37.123 63.87 37.261 64.483 C 37.399 65.096 37.288 65.738 36.952 66.269 L 33.87 71.084 L 33.625 71.467 C 33.284 71.997 32.746 72.37 32.129 72.505 C 31.512 72.64 30.866 72.526 30.333 72.188 L 30.332 72.188 Z M 61.661 60.769 C 61.5 61.009 61.293 61.215 61.051 61.374 C 60.809 61.534 60.538 61.644 60.254 61.699 C 59.388 61.866 58.491 61.687 57.757 61.199 L 48.69 55.381 C 48.484 55.25 48.234 55.206 47.996 55.258 C 47.757 55.31 47.549 55.455 47.417 55.659 C 47.285 55.864 47.24 56.113 47.291 56.35 C 47.342 56.588 47.486 56.796 47.691 56.929 L 54.68 61.41 L 54.691 61.417 C 55.325 61.789 55.79 62.392 55.986 63.099 C 56.06 63.408 56.069 63.728 56.014 64.04 C 55.959 64.353 55.841 64.651 55.666 64.916 C 54.947 66.038 53.158 66.235 51.759 65.343 L 45.627 61.445 C 45.42 61.319 45.173 61.279 44.937 61.334 C 44.702 61.388 44.497 61.532 44.367 61.735 C 44.237 61.939 44.192 62.184 44.242 62.42 C 44.292 62.656 44.432 62.863 44.633 62.997 L 49.16 65.876 L 49.167 65.876 C 49.854 66.299 50.368 66.951 50.619 67.716 C 50.726 68.023 50.764 68.35 50.73 68.674 C 50.696 68.997 50.591 69.31 50.423 69.588 C 49.705 70.71 47.916 70.907 46.517 70.016 L 44.775 68.909 L 44.757 68.897 L 44.749 68.897 L 42.409 67.409 C 42.204 67.294 41.962 67.262 41.734 67.319 C 41.505 67.376 41.307 67.517 41.18 67.715 C 41.053 67.913 41.007 68.152 41.051 68.383 C 41.095 68.613 41.225 68.819 41.416 68.956 L 43.778 70.458 C 45.166 71.35 45.736 73.042 45.02 74.161 C 44.304 75.28 42.512 75.48 41.113 74.589 L 35.925 71.289 L 38.509 67.251 C 38.925 66.604 39.154 65.855 39.174 65.087 C 39.193 64.318 39.001 63.559 38.619 62.892 C 38.236 62.224 37.678 61.674 37.004 61.3 C 36.33 60.926 35.567 60.743 34.796 60.77 C 35.222 59.98 35.385 59.075 35.259 58.186 C 35.134 57.298 34.727 56.472 34.098 55.83 C 33.47 55.188 32.652 54.762 31.763 54.615 C 30.875 54.468 29.963 54.608 29.16 55.014 C 28.895 53.983 28.242 53.093 27.336 52.53 C 26.548 52.04 25.623 51.818 24.698 51.897 C 23.773 51.976 22.899 52.351 22.206 52.966 C 21.944 52.22 21.476 51.561 20.857 51.067 C 20.237 50.572 19.491 50.261 18.703 50.169 C 17.914 50.077 17.116 50.208 16.399 50.547 C 15.682 50.885 15.074 51.418 14.646 52.084 L 13.234 54.29 C 11.775 53.248 10.162 52.151 8.126 50.827 L 19.8 33.972 C 21.317 34.841 22.891 35.606 24.512 36.263 C 25.649 36.752 26.818 37.257 28.103 37.902 C 26.011 39.606 24.433 41.852 23.54 44.394 C 23.337 44.917 23.304 45.49 23.445 46.033 C 23.587 46.576 23.896 47.061 24.328 47.42 C 27.359 49.97 31.944 48.245 35.224 45.779 C 36.859 44.55 40.167 44.581 42.301 46.581 C 43.741 47.829 45.496 48.662 47.376 48.988 L 60.417 57.064 C 61.165 57.512 61.704 58.238 61.915 59.082 C 61.988 59.366 62.003 59.661 61.959 59.951 C 61.916 60.24 61.815 60.518 61.663 60.768 L 61.661 60.769 Z M 62.767 53.198 C 62.058 53.838 61.3 54.422 60.5 54.945 L 51.469 49.355 C 53.064 49.357 54.649 49.097 56.159 48.585 C 56.382 48.494 56.561 48.32 56.657 48.099 C 56.753 47.879 56.758 47.629 56.672 47.405 C 56.586 47.18 56.416 46.998 56.197 46.898 C 55.978 46.797 55.728 46.785 55.501 46.865 C 53.037 47.802 46.59 48.078 43.57 45.24 C 40.726 42.568 36.386 42.601 34.114 44.307 C 33.178 45.011 28.363 48.4 25.522 46.011 C 25.381 45.898 25.28 45.743 25.235 45.568 C 25.189 45.394 25.201 45.209 25.27 45.042 C 28.4 36.788 35.719 36.189 43.468 35.554 C 47.592 35.212 51.849 34.87 55.473 33.285 L 64.97 51.498 C 64.193 52.008 63.457 52.576 62.767 53.198 Z M 71.155 50.912 L 67.686 52.709 L 56.042 30.379 L 71.153 22.548 L 71.155 50.912 Z M 65.122 34.424 C 65.742 34.425 66.347 34.242 66.863 33.9 C 67.378 33.557 67.78 33.07 68.017 32.5 C 68.255 31.93 68.317 31.302 68.197 30.696 C 68.077 30.091 67.779 29.534 67.341 29.098 C 66.903 28.661 66.345 28.363 65.738 28.242 C 65.13 28.122 64.5 28.183 63.928 28.419 C 63.356 28.656 62.866 29.056 62.522 29.569 C 62.178 30.082 61.994 30.686 61.994 31.303 C 61.995 32.13 62.325 32.923 62.911 33.508 C 63.497 34.093 64.293 34.422 65.122 34.424 Z M 65.122 30.022 C 65.377 30.022 65.626 30.098 65.837 30.239 C 66.049 30.38 66.214 30.58 66.312 30.815 C 66.409 31.049 66.435 31.307 66.385 31.556 C 66.335 31.805 66.213 32.034 66.033 32.213 C 65.852 32.393 65.623 32.515 65.373 32.564 C 65.124 32.614 64.865 32.589 64.629 32.491 C 64.394 32.394 64.193 32.23 64.052 32.019 C 63.91 31.808 63.835 31.56 63.835 31.306 C 63.835 30.965 63.97 30.639 64.212 30.398 C 64.453 30.158 64.781 30.022 65.122 30.022 Z M 10.741 27.89 C 10.333 27.839 9.919 27.869 9.522 27.977 C 9.125 28.086 8.754 28.271 8.429 28.522 C 7.773 29.03 7.347 29.777 7.243 30.598 C 7.192 31.005 7.221 31.418 7.33 31.813 C 7.439 32.208 7.625 32.578 7.877 32.902 C 8.129 33.226 8.443 33.497 8.8 33.7 C 9.158 33.903 9.552 34.033 9.96 34.085 C 10.09 34.101 10.221 34.109 10.353 34.109 C 11.149 34.108 11.914 33.804 12.494 33.26 C 13.073 32.717 13.423 31.973 13.473 31.181 C 13.522 30.389 13.267 29.609 12.76 28.997 C 12.252 28.386 11.53 27.99 10.741 27.89 Z M 11.626 31.148 C 11.589 31.442 11.451 31.716 11.234 31.92 C 11.018 32.125 10.737 32.248 10.44 32.269 C 10.142 32.291 9.847 32.208 9.603 32.036 C 9.36 31.864 9.184 31.614 9.106 31.327 C 9.027 31.04 9.051 30.735 9.173 30.464 C 9.295 30.193 9.508 29.972 9.775 29.84 C 10.042 29.708 10.347 29.672 10.637 29.739 C 10.928 29.806 11.186 29.971 11.368 30.206 C 11.575 30.474 11.668 30.812 11.626 31.148 Z M 36.501 29.865 C 39.465 29.865 42.361 28.989 44.825 27.348 C 47.288 25.708 49.209 23.376 50.343 20.647 C 51.477 17.918 51.773 14.916 51.195 12.019 C 50.617 9.123 49.19 6.462 47.095 4.374 C 45 2.285 42.33 0.863 39.424 0.287 C 36.518 -0.289 33.506 0.006 30.768 1.137 C 28.031 2.267 25.691 4.181 24.045 6.636 C 22.399 9.092 21.52 11.979 21.52 14.933 C 21.524 18.891 23.104 22.687 25.913 25.486 C 28.721 28.286 32.529 29.861 36.501 29.865 Z M 36.501 1.84 C 39.099 1.84 41.638 2.608 43.798 4.046 C 45.957 5.485 47.64 7.529 48.634 9.921 C 49.628 12.313 49.889 14.944 49.382 17.484 C 48.875 20.023 47.624 22.355 45.788 24.186 C 43.951 26.016 41.611 27.263 39.063 27.768 C 36.516 28.273 33.875 28.014 31.476 27.023 C 29.076 26.033 27.025 24.355 25.582 22.202 C 24.139 20.05 23.369 17.519 23.369 14.93 C 23.373 11.46 24.758 8.133 27.22 5.679 C 29.682 3.225 33.02 1.845 36.501 1.84 Z M 32.41 21.529 C 32.939 22.054 33.655 22.349 34.401 22.349 C 35.148 22.349 35.864 22.054 36.393 21.529 L 45.645 12.307 C 46.174 11.78 46.47 11.066 46.47 10.321 C 46.47 9.577 46.173 8.862 45.645 8.336 C 45.117 7.809 44.4 7.514 43.653 7.514 C 42.906 7.514 42.189 7.81 41.661 8.336 L 34.402 15.571 L 31.342 12.521 C 31.08 12.26 30.77 12.053 30.428 11.912 C 30.086 11.771 29.72 11.698 29.35 11.698 C 28.603 11.698 27.886 11.994 27.358 12.52 C 27.096 12.781 26.889 13.091 26.747 13.431 C 26.606 13.772 26.533 14.137 26.533 14.506 C 26.532 15.25 26.829 15.965 27.357 16.491 L 32.41 21.529 Z M 28.663 13.824 C 28.845 13.643 29.092 13.541 29.35 13.541 C 29.607 13.541 29.854 13.643 30.036 13.824 L 33.24 17.019 C 33.548 17.325 33.964 17.496 34.398 17.496 C 34.833 17.496 35.249 17.325 35.557 17.019 L 42.963 9.638 C 43.053 9.548 43.16 9.476 43.278 9.428 C 43.396 9.379 43.522 9.354 43.65 9.354 C 43.777 9.354 43.904 9.379 44.021 9.428 C 44.139 9.476 44.246 9.548 44.336 9.638 C 44.427 9.728 44.498 9.834 44.547 9.952 C 44.596 10.069 44.621 10.195 44.621 10.322 C 44.621 10.449 44.596 10.575 44.547 10.692 C 44.498 10.81 44.427 10.917 44.336 11.006 L 35.088 20.227 C 34.906 20.409 34.659 20.511 34.401 20.511 C 34.144 20.511 33.897 20.409 33.714 20.227 L 28.662 15.192 C 28.481 15.01 28.38 14.764 28.38 14.507 C 28.38 14.251 28.481 14.005 28.662 13.823 L 28.663 13.824 Z" fill="currentColor" fill-rule="nonzero"></path>
</svg>