<svg width="73" height="77" viewBox="0 0 73 77" fill="none" xmlns="http://www.w3.org/2000/svg">
<path d="M72.5519 20.2454C72.4164 20.1634 72.262 20.1176 72.1035 20.1124C71.9451 20.1072 71.7879 20.1426 71.6472 20.2155L54.3679 29.1678C54.2602 29.2234 54.1645 29.2997 54.0864 29.3922C54.0083 29.4848 53.9493 29.5918 53.9127 29.7071C53.8762 29.8225 53.8629 29.9439 53.8735 30.0643C53.8842 30.1848 53.9186 30.302 53.9748 30.4092L54.6202 31.648C51.2942 33.0656 47.2428 33.3984 43.3167 33.7201C38.5735 34.1094 33.735 34.5063 29.8458 36.7256C28.142 35.8162 26.6699 35.1856 25.2477 34.5697C23.7393 33.9577 22.272 33.2499 20.8547 32.4505L21.5233 31.4837C21.5928 31.3842 21.6418 31.272 21.6676 31.1535C21.6933 31.035 21.6954 30.9126 21.6735 30.7933C21.6516 30.6741 21.6063 30.5603 21.5402 30.4585C21.4741 30.3568 21.3884 30.2691 21.2881 30.2004L5.25766 19.1743C5.12706 19.0847 4.97553 19.0301 4.81764 19.0157C4.65975 19.0013 4.5008 19.0276 4.35607 19.0922C4.21134 19.1567 4.08569 19.2572 3.9912 19.3841C3.8967 19.511 3.83655 19.66 3.8165 19.8168L0.00716418 50.0172C-0.0138386 50.1843 0.0115478 50.354 0.0805603 50.5077C0.149573 50.6614 0.259567 50.7933 0.39857 50.889L4.83707 53.9441C4.93692 54.0133 5.04948 54.0621 5.16831 54.0878C5.28713 54.1135 5.40987 54.1156 5.5295 54.0939C5.64912 54.0722 5.76327 54.0271 5.86539 53.9614C5.96751 53.8956 6.05559 53.8104 6.12459 53.7106L7.0765 52.3366C9.14597 53.684 10.7742 54.7885 12.2386 55.8391L11.3184 57.2764C10.9101 57.9126 10.6809 58.6464 10.6547 59.4012C10.6284 60.1559 10.8062 60.9038 11.1693 61.5666C11.5325 62.2294 12.0677 62.7827 12.7189 63.1687C13.3701 63.5546 14.1135 63.7591 14.8711 63.7606C15.0404 63.7601 15.2095 63.7498 15.3776 63.7297C15.2149 64.5573 15.3072 65.4146 15.6424 66.1889C15.9776 66.9632 16.54 67.6183 17.2556 68.0682C17.9334 68.4935 18.7182 68.7187 19.5191 68.7175C19.6875 68.7174 19.8557 68.7074 20.0229 68.6876C19.816 69.6537 19.9559 70.6616 20.4182 71.5355C20.8805 72.4094 21.6359 73.0938 22.5526 73.4693C23.4694 73.8449 24.4893 73.8878 25.4345 73.5905C26.3798 73.2933 27.1903 72.6747 27.7249 71.8428C28.0115 72.5116 28.467 73.095 29.0469 73.5364C29.6268 73.9778 30.3114 74.2621 31.0342 74.3616C31.757 74.4612 32.4933 74.3726 33.1716 74.1046C33.8499 73.8365 34.447 73.398 34.9049 72.8318L40.1202 76.1427C40.9751 76.6945 41.9704 76.9914 42.9888 76.9983C43.6945 77.0186 44.3938 76.8601 45.0213 76.5377C45.6488 76.2152 46.184 75.7393 46.5767 75.1546C47.1182 74.2929 47.3077 73.2571 47.1063 72.2603C47.9924 72.5296 48.9413 72.5122 49.8169 72.2106C50.6924 71.9091 51.4497 71.3388 51.98 70.5817C52.5346 69.7006 52.7196 68.6374 52.495 67.6216C53.3636 67.8578 54.2843 67.8202 55.1305 67.5138C55.9768 67.2074 56.707 66.6473 57.221 65.9105C57.7237 65.1379 57.9563 64.2216 57.8828 63.3037C58.7682 63.6253 59.7261 63.6938 60.6484 63.5013C61.1753 63.3999 61.6758 63.1921 62.1191 62.8907C62.5624 62.5894 62.9392 62.2008 63.2263 61.7489C63.5134 61.2971 63.7047 60.7914 63.7885 60.2631C63.8723 59.7349 63.8468 59.1951 63.7136 58.677C63.4724 57.6653 62.9224 56.753 62.1394 56.0659C62.826 55.5808 63.4028 55.0828 63.9685 54.5969C64.5528 54.0709 65.1722 53.585 65.8225 53.1425L66.468 54.3805C66.5238 54.4877 66.6003 54.583 66.6931 54.6608C66.7859 54.7386 66.8931 54.7974 67.0087 54.8339C67.0987 54.8621 67.1925 54.8765 67.2868 54.8767C67.4362 54.8772 67.5834 54.8417 67.716 54.7731L72.503 52.2921C72.6529 52.2144 72.7785 52.0972 72.8661 51.9533C72.9537 51.8094 73 51.6443 73 51.4759V21.0317C72.9995 20.8732 72.958 20.7177 72.8795 20.5799C72.801 20.4422 72.6882 20.327 72.5519 20.2454ZM5.13063 51.9079L1.91012 49.693L5.46023 21.5458L19.4787 31.198L5.13063 51.9079ZM13.6034 61.549C13.0709 61.2094 12.6953 60.6732 12.559 60.0579C12.4227 59.4427 12.5369 58.7986 12.8763 58.2672L16.2033 53.0698C16.3719 52.8063 16.5914 52.5788 16.849 52.4005C17.1065 52.2222 17.397 52.0966 17.7037 52.0312C17.8759 51.9931 18.0517 51.9739 18.2281 51.9738C18.6789 51.9738 19.1203 52.1023 19.5002 52.3443C20.0326 52.6839 20.4082 53.2201 20.5445 53.8354C20.6808 54.4506 20.5667 55.0946 20.2272 55.6261L16.9003 60.8235C16.7316 61.0869 16.5125 61.3147 16.2556 61.4937C15.9986 61.6728 15.7087 61.7996 15.4026 61.867C15.0964 61.9343 14.78 61.9409 14.4712 61.8864C14.1625 61.8318 13.8676 61.7172 13.6034 61.549ZM18.2384 66.5111C17.9762 66.3467 17.7494 66.132 17.5711 65.8795C17.3929 65.627 17.2667 65.3416 17.2001 65.0401C17.1334 64.7386 17.1275 64.4269 17.1827 64.123C17.2379 63.8192 17.3531 63.5294 17.5217 63.2703L23.0254 54.8151C23.2471 54.4763 23.5504 54.1982 23.9074 54.006C24.2645 53.8139 24.6642 53.7138 25.07 53.7148C25.5256 53.7136 25.9721 53.8415 26.3575 54.0836C26.8001 54.3606 27.1366 54.7777 27.3131 55.2681C27.4896 55.7584 27.4959 56.2936 27.3309 56.7879L21.5662 65.7788C21.2174 66.3093 20.6741 66.6829 20.0526 66.8196C19.4311 66.9562 18.7806 66.8452 18.2401 66.5102L18.2384 66.5111ZM26.1678 70.8538C25.8258 71.3811 25.2884 71.752 24.673 71.8857C24.0575 72.0193 23.414 71.9048 22.883 71.5672C22.3519 71.2295 21.9765 70.6961 21.8386 70.0835C21.7008 69.4709 21.8118 68.8288 22.1473 68.2975L23.1181 66.7814L28.6167 58.327C28.7663 58.0979 28.8928 57.8546 28.9943 57.6007L29.0579 57.5023C29.2263 57.2391 29.445 57.0115 29.7017 56.8325C29.9583 56.6535 30.2478 56.5267 30.5537 56.4593C30.8595 56.3918 31.1757 56.3851 31.4841 56.4394C31.7925 56.4937 32.0872 56.6081 32.3513 56.776C32.6154 56.9438 32.8438 57.1619 33.0233 57.4177C33.2029 57.6735 33.3301 57.962 33.3978 58.2669C33.4655 58.5717 33.4722 58.8868 33.4177 59.1943C33.3632 59.5017 33.2485 59.7954 33.0801 60.0586L26.1678 70.8538ZM30.3316 72.1884C29.7993 71.849 29.4237 71.313 29.2873 70.6979C29.1508 70.0829 29.2646 69.439 29.6038 68.9075L30.9574 66.7926L32.9316 63.7126C33.2736 63.1854 33.811 62.8144 34.4264 62.6808C35.0419 62.5471 35.6854 62.6616 36.2164 62.9993C36.7475 63.3369 37.1229 63.8703 37.2607 64.4829C37.3986 65.0955 37.2876 65.7376 36.9521 66.269L33.8697 71.0839L33.6251 71.4672C33.2837 71.997 32.7456 72.3703 32.1286 72.5053C31.5116 72.6403 30.866 72.5261 30.3334 72.1876L30.3316 72.1884ZM61.6613 60.7687C61.5001 61.0089 61.2927 61.2149 61.051 61.3745C60.8094 61.5341 60.5383 61.6443 60.2536 61.6987C59.388 61.8663 58.491 61.6868 57.7575 61.1991L48.6899 55.3806C48.4839 55.2499 48.2344 55.2059 47.9959 55.2581C47.7574 55.3104 47.5494 55.4546 47.4173 55.6593C47.2852 55.864 47.2399 56.1125 47.2911 56.3505C47.3424 56.5884 47.4861 56.7965 47.6908 56.9291L54.6803 61.4104L54.6906 61.4172C55.3252 61.7889 55.7898 62.3921 55.9859 63.0992C56.0596 63.4077 56.0692 63.728 56.0142 64.0404C55.9591 64.3527 55.8405 64.6505 55.6657 64.9155C54.9473 66.038 53.1585 66.2348 51.7594 65.3433L45.6265 61.4446C45.4201 61.3191 45.1726 61.2793 44.9371 61.3337C44.7016 61.3881 44.4969 61.5323 44.3669 61.7355C44.2369 61.9386 44.192 62.1845 44.2418 62.4203C44.2916 62.656 44.4322 62.8629 44.6334 62.9966L49.1603 65.8763H49.1672C49.8541 66.2989 50.3684 66.9507 50.6186 67.7157C50.7258 68.0231 50.7638 68.3502 50.7299 68.6738C50.6961 68.9974 50.5913 69.3097 50.4229 69.5885C49.7045 70.7101 47.9157 70.9068 46.5166 70.0162L44.775 68.9092L44.757 68.8972H44.7493L42.4094 67.4094C42.204 67.2943 41.9623 67.2618 41.7337 67.3187C41.505 67.3756 41.3069 67.5175 41.1799 67.7153C41.0529 67.9131 41.0066 68.1519 41.0506 68.3826C41.0946 68.6133 41.2254 68.8186 41.4163 68.9562L43.7776 70.4577C45.1664 71.35 45.7355 73.0423 45.0197 74.1613C44.3038 75.2803 42.5124 75.4797 41.1133 74.5891L35.9246 71.2893L38.5091 67.2511C38.9245 66.6036 39.1544 65.855 39.1736 65.0866C39.1929 64.3182 39.001 63.5592 38.6185 62.8917C38.2361 62.2242 37.6777 61.6737 37.0039 61.2998C36.3302 60.9259 35.5666 60.7429 34.7959 60.7704C35.2224 59.9802 35.3847 59.0748 35.2592 58.1862C35.1338 57.2976 34.727 56.4721 34.0983 55.8298C33.4695 55.1875 32.6515 54.762 31.7633 54.6152C30.8751 54.4684 29.9631 54.608 29.16 55.0135C28.8949 53.9828 28.2417 53.0933 27.336 52.5299C26.5484 52.0405 25.6228 51.8185 24.698 51.8971C23.7732 51.9758 22.8988 52.3509 22.2057 52.9663C21.9436 52.2196 21.4762 51.5613 20.8568 51.0668C20.2374 50.5722 19.491 50.2611 18.7027 50.1692C17.9144 50.0772 17.1161 50.208 16.3988 50.5466C15.6815 50.8852 15.0742 51.418 14.6462 52.0842L13.2343 54.2898C11.7751 53.2477 10.1622 52.1509 8.12625 50.8266L19.7998 33.9725C21.3169 34.841 22.8912 35.6062 24.5121 36.2628C25.6485 36.7521 26.8184 37.2569 28.1025 37.902C26.0112 39.606 24.4325 41.8525 23.5404 44.3938C23.3371 44.9169 23.3038 45.4904 23.4452 46.0334C23.5866 46.5763 23.8955 47.0613 24.3284 47.4198C27.3592 49.9702 31.9445 48.2445 35.2242 45.7789C36.8594 44.5503 40.1674 44.5811 42.3013 46.5814C43.7412 47.8294 45.4959 48.6616 47.3758 48.988L60.4167 57.0643C61.1649 57.5124 61.7039 58.2383 61.9153 59.0825C61.9878 59.366 62.0027 59.6611 61.9594 59.9505C61.9161 60.2399 61.8153 60.5178 61.663 60.7679L61.6613 60.7687ZM62.7668 53.1981C62.0575 53.8378 61.2996 54.4219 60.4999 54.9451L51.4693 49.355C53.0644 49.3569 54.649 49.0967 56.1593 48.5851C56.3823 48.494 56.5609 48.3196 56.6567 48.0991C56.7525 47.8786 56.758 47.6295 56.6721 47.405C56.5861 47.1805 56.4155 46.9984 56.1967 46.8976C55.9779 46.7968 55.7282 46.7852 55.5009 46.8654C53.0366 47.8022 46.5904 48.0777 43.5699 45.2399C40.7262 42.5681 36.3856 42.6006 34.1144 44.3065C33.1779 45.0106 28.3635 48.4003 25.5223 46.0107C25.381 45.8981 25.28 45.7429 25.2345 45.5684C25.189 45.3938 25.2015 45.2092 25.27 45.0423C28.3995 36.7881 35.7186 36.1892 43.4678 35.5544C47.5921 35.2122 51.8486 34.8699 55.4734 33.2846L64.9702 51.4982C64.1932 52.0078 63.4566 52.5761 62.7668 53.1981ZM71.1554 50.9121L67.686 52.7087L56.0417 30.3792L71.1528 22.5477L71.1554 50.9121ZM65.1221 34.4242C65.7416 34.4249 66.3473 34.2424 66.8627 33.8999C67.378 33.5574 67.7799 33.0702 68.0174 32.4999C68.255 31.9297 68.3175 31.3021 68.197 30.6964C68.0766 30.0908 67.7786 29.5344 67.3409 29.0976C66.9031 28.6607 66.3452 28.3631 65.7377 28.2424C65.1302 28.1217 64.5004 28.1833 63.9281 28.4195C63.3557 28.6556 62.8665 29.0556 62.5222 29.5689C62.178 30.0822 61.9943 30.6858 61.9943 31.3032C61.9952 32.1301 62.3249 32.9229 62.9112 33.5079C63.4975 34.0929 64.2925 34.4224 65.1221 34.4242ZM65.1221 30.0225C65.3768 30.0225 65.6257 30.0977 65.8374 30.2388C66.0491 30.3798 66.2142 30.5802 66.3116 30.8147C66.4091 31.0492 66.4346 31.3072 66.3849 31.5561C66.3352 31.8051 66.2126 32.0337 66.0325 32.2132C65.8525 32.3927 65.623 32.5149 65.3733 32.5644C65.1235 32.6139 64.8647 32.5885 64.6294 32.4914C64.3941 32.3943 64.193 32.2298 64.0516 32.0188C63.9101 31.8077 63.8346 31.5596 63.8346 31.3058C63.8346 30.9654 63.9702 30.639 64.2117 30.3984C64.4531 30.1577 64.7806 30.0225 65.1221 30.0225ZM10.7408 27.8905C10.3327 27.8394 9.91858 27.8689 9.52197 27.9773C9.12536 28.0857 8.75405 28.2709 8.42926 28.5223C7.7733 29.0301 7.3466 29.7769 7.24302 30.5983C7.19173 31.005 7.22131 31.4178 7.33008 31.8131C7.43885 32.2084 7.62467 32.5785 7.87694 32.9022C8.1292 33.2259 8.44297 33.497 8.80033 33.6999C9.15769 33.9027 9.55163 34.0334 9.95968 34.0846C10.0901 34.1008 10.2214 34.1091 10.3528 34.1094C11.1488 34.1078 11.9143 33.8043 12.4938 33.2604C13.0734 32.7165 13.4234 31.9731 13.4728 31.1813C13.5222 30.3894 13.2673 29.6085 12.7598 28.9973C12.2523 28.386 11.5304 27.9903 10.7408 27.8905ZM11.6257 31.1475C11.589 31.4425 11.4506 31.7155 11.2343 31.9201C11.018 32.1247 10.7372 32.2482 10.4398 32.2693C10.1424 32.2905 9.84677 32.2081 9.6035 32.0363C9.36022 31.8644 9.18434 31.6137 9.10588 31.3269C9.02742 31.0402 9.05125 30.7352 9.1733 30.464C9.29534 30.1929 9.50804 29.9723 9.77508 29.8401C10.0421 29.7078 10.3469 29.672 10.6375 29.7388C10.928 29.8057 11.1863 29.9709 11.3682 30.2064C11.575 30.4741 11.6675 30.8123 11.6257 31.1475ZM36.5014 29.8651C39.4645 29.8651 42.361 28.9893 44.8247 27.3485C47.2884 25.7077 49.2087 23.3755 50.3426 20.647C51.4765 17.9184 51.7732 14.916 51.1951 12.0193C50.6171 9.12272 49.1902 6.46199 47.095 4.37364C44.9998 2.28529 42.3303 0.863106 39.4242 0.286931C36.5181 -0.289244 33.5058 0.00646991 30.7682 1.13668C28.0307 2.26689 25.6909 4.18082 24.0447 6.63647C22.3985 9.09211 21.5199 11.9792 21.5199 14.9325C21.5244 18.8915 23.1043 22.687 25.9129 25.4864C28.7215 28.2858 32.5295 29.8605 36.5014 29.8651ZM36.5014 1.84026C39.0988 1.84026 41.6379 2.60796 43.7976 4.04628C45.9572 5.48459 47.6405 7.52893 48.6344 9.92076C49.6284 12.3126 49.8885 14.9445 49.3818 17.4836C48.875 20.0228 47.6243 22.3552 45.7876 24.1858C43.951 26.0164 41.611 27.2631 39.0635 27.7682C36.516 28.2732 33.8755 28.014 31.4758 27.0233C29.0761 26.0325 27.025 24.3548 25.582 22.2022C24.139 20.0496 23.3688 17.5189 23.3688 14.93C23.3733 11.4598 24.7584 8.13297 27.2202 5.67915C29.6821 3.22534 33.0198 1.84479 36.5014 1.84026ZM32.4097 21.5287C32.9385 22.0541 33.6548 22.3492 34.4015 22.3492C35.1482 22.3492 35.8644 22.0541 36.3933 21.5287L45.6454 12.3069C46.1736 11.7803 46.4704 11.066 46.4703 10.3213C46.4702 9.57662 46.1733 8.86245 45.645 8.33592C45.1166 7.8094 44.4 7.51364 43.6529 7.51372C42.9057 7.5138 42.1892 7.80971 41.6609 8.33635L34.4019 15.5708L31.3419 12.5208C31.0804 12.26 30.7698 12.0532 30.428 11.912C30.0863 11.7709 29.72 11.6982 29.35 11.6981C28.6029 11.6981 27.8863 11.9938 27.3579 12.5204C27.0963 12.7811 26.8887 13.0906 26.7471 13.4312C26.6055 13.7719 26.5326 14.137 26.5326 14.5057C26.5325 15.2504 26.8292 15.9647 27.3575 16.4913L32.4097 21.5287ZM28.663 13.8238C28.8453 13.6426 29.0923 13.5408 29.3497 13.5408C29.6071 13.5408 29.8541 13.6426 30.0364 13.8238L33.2397 17.0192C33.5476 17.3245 33.9642 17.4959 34.3985 17.4959C34.8328 17.4959 35.2494 17.3245 35.5573 17.0192L42.9631 9.63762C43.0532 9.54774 43.1603 9.47644 43.2781 9.4278C43.3959 9.37916 43.5222 9.35412 43.6497 9.35412C43.7773 9.35412 43.9035 9.37916 44.0214 9.4278C44.1392 9.47644 44.2462 9.54774 44.3364 9.63762C44.4266 9.7275 44.4981 9.83421 44.5469 9.95164C44.5957 10.0691 44.6208 10.1949 44.6208 10.3221C44.6208 10.4492 44.5957 10.575 44.5469 10.6925C44.4981 10.8099 44.4266 10.9166 44.3364 11.0065L35.0877 20.2274C34.9056 20.4088 34.6586 20.5107 34.4011 20.5107C34.1436 20.5107 33.8966 20.4088 33.7144 20.2274L28.6622 15.1918C28.4814 15.0095 28.3801 14.7636 28.3801 14.5073C28.3801 14.2511 28.4814 14.0052 28.6622 13.8229L28.663 13.8238Z" fill="black"></path>
</svg>