<svg xmlns="http://www.w3.org/2000/svg" width="21" height="14.700" viewBox="0 0 21 14.700" fill="none">
  <path d="M 8.388 10.065 L 8.388 4.173 C 10.48 5.157 12.1 6.108 14.016 7.133 C 12.436 8.01 10.48 8.993 8.388 10.065 Z M 20.046 1.242 C 19.685 0.767 19.07 0.397 18.415 0.274 C 16.491 -0.091 4.485 -0.092 2.561 0.274 C 2.036 0.373 1.569 0.611 1.167 0.98 C -0.525 2.551 0.005 10.974 0.413 12.339 C 0.584 12.929 0.806 13.355 1.085 13.635 C 1.445 14.004 1.938 14.259 2.504 14.373 C 4.088 14.701 12.251 14.884 18.382 14.422 C 18.946 14.324 19.446 14.061 19.841 13.676 C 21.405 12.111 21.299 3.215 20.046 1.242 Z" fill="currentColor" fill-rule="evenodd"></path>
</svg>